<?xml version="1.0" encoding="UTF-8" standalone="no"?>
<svg width="1360px" height="700px"
     viewBox="0 0 1360 700" preserveAspectRatio="none"
	 xmlns="http://www.w3.org/2000/svg" version="1.1"
	 xmlns:xlink="http://www.w3.org/1999/xlink">

<path stroke="red" stroke-width="3" fill="none" stroke-linecap="round" stroke-linejoin="round" d="M 160 423
L 161 324.5
L 162 165
L 163 147.5
L 164 234
L 165 307
L 166 393.5
L 167 421.5
L 168 324.5
L 169 251
L 170 350.5
L 171 398.5
L 172 336
L 173 285
L 174 358.5
L 175 419.5
L 176 428
L 177 468
L 178 493
L 179 485
L 180 508.5
L 181 537.5
L 182 548.5
L 183 574
L 184 594
L 185 577.5
L 186 547
L 187 531
L 188 529
L 189 529.5
L 190 525.5
L 191 527
L 192 533.5
L 193 548
L 194 567.5
L 195 570.5
L 196 565.5
L 197 540
L 198 476.5
L 199 447.5
L 200 481
L 201 500.5
L 202 490.5
L 203 451
L 204 392
L 205 325
L 206 204.5
L 207 81
L 208 141
L 209 222
L 210 258
L 211 274
L 212 290
L 213 324.5
L 214 364
L 215 387.5
L 216 383.5
L 217 316.5
L 218 229
L 219 244.5
L 220 288.5
L 221 312.5
L 222 335.5
L 223 343.5
L 224 367
L 225 410
L 226 446
L 227 456.5
L 228 418
L 229 363.5
L 230 388.5
L 231 461.5
L 232 492
L 233 488
L 234 439.5
L 235 390.5
L 236 445.5
L 237 490.5
L 238 426.5
L 239 322
L 240 315
L 241 384
L 242 434.5
L 243 457
L 244 473
L 245 489
L 246 474.5
L 247 435.5
L 248 399
L 249 403
L 250 450
L 251 483
L 252 496.5
L 253 496
L 254 461.5
L 255 386
L 256 321.5
L 257 367.5
L 258 437
L 259 446
L 260 455.5
L 261 466
L 262 451
L 263 445
L 264 462
L 265 433.5
L 266 360.5
L 267 346.5
L 268 346
L 269 315
L 270 288.5
L 271 300.5
L 272 357.5
L 273 374
L 274 362.5
L 275 397
L 276 479.5
L 277 532
L 278 552.5
L 279 566.5
L 280 558.5
L 281 558
L 282 572.5
L 283 565.5
L 284 565
L 285 586
L 286 581.5
L 287 541.5
L 288 530
L 289 566.5
L 290 577
L 291 523
L 292 450
L 293 430
L 294 424.5
L 295 388
L 296 397.5
L 297 444
L 298 441
L 299 425
L 300 395.5
L 301 303.5
L 302 271
L 303 341.5
L 304 380.5
L 305 380
L 306 357
L 307 353.5
L 308 425
L 309 492
L 310 498.5
L 311 495
L 312 479
L 313 466
L 314 475
L 315 426
L 316 359.5
L 317 378.5
L 318 411.5
L 319 373
L 320 315.5
L 321 340.5
L 322 387.5
L 323 400
L 324 388
L 325 373.5
L 326 365
L 327 355.5
L 328 349.5
L 329 369
L 330 410.5
L 331 438
L 332 441
L 333 430.5
L 334 411
L 335 366.5
L 336 323.5
L 337 351.5
L 338 369.5
L 339 350.5
L 340 366.5
L 341 365.5
L 342 324
L 343 305
L 344 363.5
L 345 471
L 346 544
L 347 582.5
L 348 587.5
L 349 546
L 350 521.5
L 351 546
L 352 569.5
L 353 594.5
L 354 592
L 355 528.5
L 356 494
L 357 543.5
L 358 569
L 359 557.5
L 360 572.5
L 361 573
L 362 535.5
L 363 518.5
L 364 500
L 365 448.5
L 366 389
L 367 389
L 368 441.5
L 369 452
L 370 463.5
L 371 484
L 372 491.5
L 373 509
L 374 527.5
L 375 540
L 376 550
L 377 535.5
L 378 477
L 379 426.5
L 380 435
L 381 456
L 382 420
L 383 292.5
L 384 229.5
L 385 328
L 386 415
L 387 484.5
L 388 504.5
L 389 451.5
L 390 396.5
L 391 420.5
L 392 453.5
L 393 442.5
L 394 416
L 395 360
L 396 342
L 397 437
L 398 512.5
L 399 547
L 400 572.5
L 401 583
L 402 585.5
L 403 572
L 404 542.5
L 405 522
L 406 514
L 407 508.5
L 408 465
L 409 410.5
L 410 438.5
L 411 452
L 412 386.5
L 413 372.5
L 414 430
L 415 455.5
L 416 420
L 417 294
L 418 201
L 419 278.5
L 420 313.5
L 421 320
L 422 379
L 423 424
L 424 419
L 425 397.5
L 426 364
L 427 332.5
L 428 341.5
L 429 358.5
L 430 369
L 431 374
L 432 344.5
L 433 283
L 434 261
L 435 323
L 436 390
L 437 410
L 438 380.5
L 439 369
L 440 433.5
L 441 498
L 442 494.5
L 443 438.5
L 444 400
L 445 420
L 446 458
L 447 457
L 448 438
L 449 431.5
L 450 389
L 451 341.5
L 452 354.5
L 453 363.5
L 454 369.5
L 455 405
L 456 409.5
L 457 402.5
L 458 442.5
L 459 490.5
L 460 512
L 461 523.5
L 462 535.5
L 463 537
L 464 533.5
L 465 535
L 466 545
L 467 556
L 468 549
L 469 520
L 470 497.5
L 471 500.5
L 472 506
L 473 471.5
L 474 404.5
L 475 380
L 476 373.5
L 477 338.5
L 478 353.5
L 479 405.5
L 480 436.5
L 481 467
L 482 512
L 483 549
L 484 562
L 485 551
L 486 511.5
L 487 467.5
L 488 468
L 489 519
L 490 533
L 491 435.5
L 492 304
L 493 301.5
L 494 370.5
L 495 413.5
L 496 444.5
L 497 481
L 498 501
L 499 509.5
L 500 497
L 501 451.5
L 502 448
L 503 499
L 504 521.5
L 505 524
L 506 547.5
L 507 579.5
L 508 584.5
L 509 553.5
L 510 469.5
L 511 368
L 512 387
L 513 477.5
L 514 505
L 515 495.5
L 516 498.5
L 517 507.5
L 518 500
L 519 469
L 520 456
L 521 504
L 522 520.5
L 523 475
L 524 466.5
L 525 501.5
L 526 507.5
L 527 496.5
L 528 484.5
L 529 466
L 530 455.5
L 531 478
L 532 522
L 533 561.5
L 534 576.5
L 535 562.5
L 536 526.5
L 537 492.5
L 538 501
L 539 531.5
L 540 528
L 541 524.5
L 542 557.5
L 543 596.5
L 544 621.5
L 545 609.5
L 546 547
L 547 468.5
L 548 460.5
L 549 524
L 550 552
L 551 537
L 552 531.5
L 553 537.5
L 554 535.5
L 555 514
L 556 512
L 557 579
L 558 642
L 559 647
L 560 606.5
L 561 549
L 562 528.5
L 563 553.5
L 564 554
L 565 503
L 566 479.5
L 567 516.5
L 568 551
L 569 562.5
L 570 549
L 571 530.5
L 572 526.5
L 573 545
L 574 573
L 575 595
L 576 602.5
L 577 587.5
L 578 567.5
L 579 571
L 580 574.5
L 581 556
L 582 543
L 583 542.5
L 584 569
L 585 605
L 586 595.5
L 587 540.5
L 588 468.5
L 589 423
L 590 457.5
L 591 519
L 592 519.5
L 593 474.5
L 594 439
L 595 428
L 596 437
L 597 467
L 598 501
L 599 519
L 600 529.5
L 601 534
L 602 526.5
L 603 508
L 604 488.5
L 605 493
L 606 506.5
L 607 496.5
L 608 475.5
L 609 474
L 610 492
L 611 512.5
L 612 515.5
L 613 507
L 614 517.5
L 615 531.5
L 616 507
L 617 447
L 618 385
L 619 404
L 620 492
L 621 533.5
L 622 515
L 623 463
L 624 456
L 625 503.5
L 626 520.5
L 627 534.5
L 628 563
L 629 545.5
L 630 469.5
L 631 424.5
L 632 464.5
L 633 517
L 634 542
L 635 537.5
L 636 537
L 637 548
L 638 542.5
L 639 522
L 640 500
L 641 470.5
L 642 442
L 643 458
L 644 485.5
L 645 487.5
L 646 484
L 647 477
L 648 455.5
L 649 442.5
L 650 473.5
L 651 509
L 652 509
L 653 492
L 654 477
L 655 488.5
L 656 512
L 657 493.5
L 658 464.5
L 659 505
L 660 562
L 661 569.5
L 662 536.5
L 663 471.5
L 664 433
L 665 465
L 666 477.5
L 667 446.5
L 668 447
L 669 498
L 670 542.5
L 671 572.5
L 672 600
L 673 612.5
L 674 597
L 675 556.5
L 676 507
L 677 462.5
L 678 440
L 679 471.5
L 680 528.5
L 681 547.5
L 682 557.5
L 683 599.5
L 684 609.5
L 685 542
L 686 452
L 687 411.5
L 688 450.5
L 689 511
L 690 522.5
L 691 508
L 692 475
L 693 416.5
L 694 409.5
L 695 425.5
L 696 402
L 697 394.5
L 698 398.5
L 699 394.5
L 700 452.5
L 701 537
L 702 544.5
L 703 475.5
L 704 421
L 705 449.5
L 706 494
L 707 523.5
L 708 549.5
L 709 570.5
L 710 581
L 711 585.5
L 712 580.5
L 713 563
L 714 552
L 715 549.5
L 716 535
L 717 491
L 718 441
L 719 418.5
L 720 404.5
L 721 390
L 722 386.5
L 723 404.5
L 724 443
L 725 490.5
L 726 521
L 727 524.5
L 728 522
L 729 519.5
L 730 505.5
L 731 480.5
L 732 457
L 733 452
L 734 487
L 735 526.5
L 736 523.5
L 737 491
L 738 475.5
L 739 503
L 740 550
L 741 598.5
L 742 632
L 743 633.5
L 744 605.5
L 745 564.5
L 746 526
L 747 492
L 748 470
L 749 443
L 750 418.5
L 751 454.5
L 752 512
L 753 545.5
L 754 565
L 755 582.5
L 756 594.5
L 757 577.5
L 758 528
L 759 476
L 760 454.5
L 761 444.5
L 762 410.5
L 763 374.5
L 764 358
L 765 344
L 766 368.5
L 767 459.5
L 768 544
L 769 582
L 770 594
L 771 598.5
L 772 596.5
L 773 586
L 774 571.5
L 775 557.5
L 776 540.5
L 777 524.5
L 778 518.5
L 779 523.5
L 780 514
L 781 470
L 782 422
L 783 387.5
L 784 347
L 785 343
L 786 391
L 787 433
L 788 441
L 789 386
L 790 299
L 791 301
L 792 359
L 793 392.5
L 794 416
L 795 459.5
L 796 505
L 797 513.5
L 798 474
L 799 408
L 800 378
L 801 399
L 802 439.5
L 803 479.5
L 804 493.5
L 805 477
L 806 439
L 807 394.5
L 808 376.5
L 809 379
L 810 360.5
L 811 343
L 812 379.5
L 813 453
L 814 503
L 815 519
L 816 540
L 817 578
L 818 603.5
L 819 607.5
L 820 598.5
L 821 588
L 822 576
L 823 527
L 824 427
L 825 351
L 826 371
L 827 414
L 828 421
L 829 429
L 830 455
L 831 457.5
L 832 421.5
L 833 353
L 834 337.5
L 835 402
L 836 429
L 837 418
L 838 427.5
L 839 443
L 840 411.5
L 841 368.5
L 842 396.5
L 843 447.5
L 844 436.5
L 845 399.5
L 846 408
L 847 452
L 848 496.5
L 849 513
L 850 500.5
L 851 463
L 852 407.5
L 853 340.5
L 854 302
L 855 368
L 856 439
L 857 454
L 858 489.5
L 859 539.5
L 860 540
L 861 508.5
L 862 480
L 863 451.5
L 864 444.5
L 865 472.5
L 866 471.5
L 867 416
L 868 363
L 869 362.5
L 870 399.5
L 871 430.5
L 872 424.5
L 873 397.5
L 874 390.5
L 875 415.5
L 876 450.5
L 877 475
L 878 475
L 879 434
L 880 361.5
L 881 334.5
L 882 366.5
L 883 361.5
L 884 373
L 885 450.5
L 886 487.5
L 887 453
L 888 389
L 889 340
L 890 364.5
L 891 447.5
L 892 495.5
L 893 494
L 894 473.5
L 895 434.5
L 896 375.5
L 897 313
L 898 285.5
L 899 308
L 900 338.5
L 901 391.5
L 902 448.5
L 903 470
L 904 458
L 905 401
L 906 339.5
L 907 370.5
L 908 413
L 909 407
L 910 411.5
L 911 428
L 912 427.5
L 913 425.5
L 914 423.5
L 915 408
L 916 427
L 917 489.5
L 918 522.5
L 919 513
L 920 463
L 921 369
L 922 336.5
L 923 393
L 924 409
L 925 364.5
L 926 316
L 927 355
L 928 416
L 929 419.5
L 930 427
L 931 478.5
L 932 503.5
L 933 462.5
L 934 394
L 935 384.5
L 936 461.5
L 937 518
L 938 496.5
L 939 451.5
L 940 429
L 941 424
L 942 444
L 943 467.5
L 944 482.5
L 945 491
L 946 478
L 947 446.5
L 948 413.5
L 949 379.5
L 950 357
L 951 368
L 952 427
L 953 503
L 954 529.5
L 955 519.5
L 956 511.5
L 957 479.5
L 958 432.5
L 959 429.5
L 960 454.5
L 961 477
L 962 497.5
L 963 507.5
L 964 519
L 965 534
L 966 538
L 967 544
L 968 549
L 969 530.5
L 970 492.5
L 971 438.5
L 972 396
L 973 440
L 974 495
L 975 497
L 976 487
L 977 460.5
L 978 446
L 979 495.5
L 980 523
L 981 475.5
L 982 416
L 983 434.5
L 984 483
L 985 483
L 986 471.5
L 987 450.5
L 988 411
L 989 418.5
L 990 422.5
L 991 387
L 992 419.5
L 993 478
L 994 473
L 995 438.5
L 996 414
L 997 407.5
L 998 398.5
L 999 386
L 1000 405
L 1001 426
L 1002 414.5
L 1003 406.5
L 1004 432
L 1005 465
L 1006 466.5
L 1007 455.5
L 1008 463.5
L 1009 435
L 1010 379.5
L 1011 387.5
L 1012 426.5
L 1013 449.5
L 1014 467.5
L 1015 491.5
L 1016 502.5
L 1017 467.5
L 1018 418
L 1019 400.5
L 1020 398.5
L 1021 427
L 1022 484.5
L 1023 515
L 1024 529
L 1025 568.5
L 1026 602
L 1027 598.5
L 1028 591
L 1029 614
L 1030 626.5
L 1031 602.5
L 1032 572.5
L 1033 550
L 1034 529.5
L 1035 506
L 1036 461.5
L 1037 406
L 1038 414
L 1039 466
L 1040 463
L 1041 419
L 1042 386
L 1043 371
L 1044 353
L 1045 361.5
L 1046 396
L 1047 386
L 1048 349
L 1049 354
L 1050 393
L 1051 432
L 1052 442
L 1053 441.5
L 1054 448
L 1055 435
L 1056 419
L 1057 416.5
L 1058 388.5
L 1059 343.5
L 1060 337.5
L 1061 331.5
L 1062 307
L 1063 329
L 1064 425.5
L 1065 529.5
L 1066 577
L 1067 579.5
L 1068 568
L 1069 571
L 1070 590.5
L 1071 590
L 1072 556.5
L 1073 505.5
L 1074 466
L 1075 442.5
L 1076 405
L 1077 356
L 1078 335.5
L 1079 373
L 1080 399.5
L 1081 395.5
L 1082 418
L 1083 417
L 1084 423.5
L 1085 481.5
L 1086 492.5
L 1087 475.5
L 1088 496
L 1089 512
L 1090 498
L 1091 468
L 1092 432.5
L 1093 426
L 1094 443
L 1095 450.5
L 1096 455.5
L 1097 440
L 1098 406.5
L 1099 411
L 1100 459.5
L 1101 495
L 1102 488.5
L 1103 459
L 1104 437
L 1105 447
L 1106 467
L 1107 476
L 1108 484.5
L 1109 464
L 1110 447.5
L 1111 468.5
L 1112 490
L 1113 511
L 1114 516.5
L 1115 480
L 1116 441
L 1117 462.5
L 1118 519
L 1119 538
L 1120 510
L 1121 475.5
L 1122 465
L 1123 462.5
L 1124 439.5
L 1125 411.5
L 1126 418.5
L 1127 442.5
L 1128 463
L 1129 492.5
L 1130 523
L 1131 547
L 1132 536
L 1133 480.5
L 1134 433.5
L 1135 396.5
L 1136 374.5
L 1137 421.5
L 1138 467
L 1139 483
L 1140 487.5
L 1141 467.5
L 1142 437
L 1143 438
L 1144 463
L 1145 475
L 1146 487
L 1147 515.5
L 1148 545.5
L 1149 552.5
L 1150 527
L 1151 501.5
L 1152 494
L 1153 478
L 1154 453
L 1155 438
L 1156 423
L 1157 412.5
L 1158 447.5
L 1159 503
L 1160 515.5
L 1161 502.5
L 1162 492
L 1163 472.5
L 1164 461.5
L 1165 482.5
L 1166 502.5
L 1167 500
L 1168 492.5
L 1169 504.5
L 1170 538
L 1171 570
L 1172 582
L 1173 582
L 1174 584.5
L 1175 573
L 1176 554.5
L 1177 558
L 1178 555
L 1179 516.5
L 1180 466.5
L 1181 464
L 1182 519.5
L 1183 565.5
L 1184 557.5
L 1185 524.5
L 1186 514.5
L 1187 513
L 1188 501.5
L 1189 479
L 1190 458
L 1191 457.5
L 1192 463.5
L 1193 481
L 1194 525.5
L 1195 561.5
L 1196 546
L 1197 484.5
L 1198 439.5
L 1199 448
L 1200 464
L 1201 473.5
L 1202 486.5
L 1203 507
L 1204 529
L 1205 535.5
L 1206 536.5
L 1207 558.5
L 1208 588
L 1209 596.5
L 1210 586.5
L 1211 570.5
L 1212 557
L 1213 531.5
L 1214 488
L 1215 455
L 1216 458.5
L 1217 487
L 1218 484.5
L 1219 431
L 1220 429.5
L 1221 501.5
L 1222 521.5
L 1223 502.5
L 1224 498
L 1225 494.5
L 1226 503
L 1227 529
L 1228 529.5
L 1229 510.5
L 1230 505.5
L 1231 516
L 1232 534
L 1233 563.5
L 1234 599.5
L 1235 625
L 1236 627
L 1237 617.5
L 1238 612
L 1239 584.5
L 1240 530
L 1241 483.5
L 1242 455.5
L 1243 471.5
L 1244 531
L 1245 575
L 1246 594
L 1247 600.5
L 1248 610
L 1249 629
L 1250 637.5
L 1251 626
L 1252 611.5
L 1253 611.5
L 1254 614
L 1255 602.5
L 1256 591.5
L 1257 598.5
L 1258 606
L 1259 591.5
L 1260 562.5
L 1261 538
L 1262 522
L 1263 509
L 1264 486
L 1265 457
L 1266 456
L 1267 489.5
L 1268 527
L 1269 561
L 1270 586
L 1271 603
L 1272 621.5
L 1273 635.5
L 1274 638
L 1275 631
L 1276 613.5
L 1277 576.5
L 1278 521
L 1279 479.5
L 1280 473.5
L 1281 468.5
L 1282 438
L 1283 383.5
L 1284 380.5
L 1285 465.5
L 1286 534
L 1287 540
L 1288 502.5
L 1289 457.5
L 1290 422.5
L 1291 366.5
L 1292 335
L 1293 410
L 1294 475
L 1295 466.5" />
    
<rect x="100" y="10" width="1200" height="600" fill="none" stroke="black" stroke-width="1" />     
<g stroke = "black" stroke-width = "1">
<line x1 = "300" y1 = "10" x2 = "300" y2 = "610" />
<line x1 = "500" y1 = "10" x2 = "500" y2 = "610" />
<line x1 = "700" y1 = "10" x2 = "700" y2 = "610" />
<line x1 = "900" y1 = "10" x2 = "900" y2 = "610" />
<line x1 = "1100" y1 = "10" x2 = "1100" y2 = "610" />

<line x1 = "100" y1 = "110" x2 = "1300" y2 = "110" />
<line x1 = "100" y1 = "210" x2 = "1300" y2 = "210" />
<line x1 = "100" y1 = "310" x2 = "1300" y2 = "310" />
<line x1 = "100" y1 = "410" x2 = "1300" y2 = "410" />
<line x1 = "100" y1 = "510" x2 = "1300" y2 = "510" />
<line x1 = "100" y1 = "610" x2 = "1300" y2 = "610" />
</g>

<g fill="black" font-size="24" font-family="sans-serif">
<text x="48" y="650">10000 BC</text>
<text x="254" y="650">8000 BC</text>
<text x="454" y="650">6000 BC</text>
<text x="654" y="650">4000 BC</text>
<text x="854" y="650">2000 BC</text>
<text x="1072" y="650">1 AD</text>
<text x="1254" y="650">2000 AD</text>

<text x="70" y="620">0</text>
<text x="56" y="520">20</text>
<text x="56" y="420">40</text>
<text x="56" y="320">60</text>
<text x="56" y="220">80</text>
<text x="42" y="120">100</text>

<text x="50" y="40">SN</text>
</g>

</svg>
